<svg version="1.1" id="Layer_1" xmlns="http://www.w3.org/2000/svg" xmlns:xlink="http://www.w3.org/1999/xlink" x="0px" y="0px"
	 width="100%" viewBox="0 0 673 673" enable-background="new 0 0 673 673" xml:space="preserve">
<path fill="#060606" opacity="1.000000" stroke="none" 
	d="
M674.000000,167.000000 
	C674.000000,336.333313 674.000000,505.166626 674.000000,674.000000 
	C449.666718,674.000000 225.333420,674.000000 1.000106,674.000000 
	C1.000070,449.666748 1.000070,225.333481 1.000035,1.000166 
	C225.333237,1.000111 449.666473,1.000111 673.999878,1.000055 
	C674.000000,56.166668 674.000000,111.333336 674.000000,167.000000 
M566.500000,14.097224 
	C407.189362,14.178058 247.878708,14.254721 88.568069,14.350505 
	C79.404144,14.356015 70.226196,14.224770 61.079342,14.666223 
	C41.285011,15.621551 24.129192,28.176294 18.383331,46.909916 
	C16.136992,54.233810 15.632831,62.324780 15.625472,70.067604 
	C15.522842,178.052536 15.701505,286.037689 15.690439,394.022766 
	C15.683113,465.512665 15.993933,537.008606 15.151342,608.489929 
	C14.730816,644.165344 38.475353,663.891541 68.917160,662.411194 
	C83.547592,661.699707 98.240616,662.266113 112.905289,662.269348 
	C277.049530,662.305359 441.193756,662.349487 605.338013,662.351379 
	C609.153320,662.351440 613.053894,662.314026 616.770203,661.571289 
	C641.718811,656.584778 656.317444,638.156189 656.320251,611.987488 
	C656.330017,521.833130 656.352295,431.678741 656.362488,341.524353 
	C656.372925,248.870605 656.500183,156.216599 656.306091,63.563259 
	C656.245850,34.819145 635.116882,14.252831 606.494629,14.118759 
	C593.496704,14.057876 580.498230,14.101507 566.500000,14.097224 
z"/>
<path fill="#FAF9F9" opacity="1.000000" stroke="none" 
	d="
M567.000000,14.097477 
	C580.498230,14.101507 593.496704,14.057876 606.494629,14.118759 
	C635.116882,14.252831 656.245850,34.819145 656.306091,63.563259 
	C656.500183,156.216599 656.372925,248.870605 656.362488,341.524353 
	C656.352295,431.678741 656.330017,521.833130 656.320251,611.987488 
	C656.317444,638.156189 641.718811,656.584778 616.770203,661.571289 
	C613.053894,662.314026 609.153320,662.351440 605.338013,662.351379 
	C441.193756,662.349487 277.049530,662.305359 112.905289,662.269348 
	C98.240616,662.266113 83.547592,661.699707 68.917160,662.411194 
	C38.475353,663.891541 14.730816,644.165344 15.151342,608.489929 
	C15.993933,537.008606 15.683113,465.512665 15.690439,394.022766 
	C15.701505,286.037689 15.522842,178.052536 15.625472,70.067604 
	C15.632831,62.324780 16.136992,54.233810 18.383331,46.909916 
	C24.129192,28.176294 41.285011,15.621551 61.079342,14.666223 
	C70.226196,14.224770 79.404144,14.356015 88.568069,14.350505 
	C247.878708,14.254721 407.189362,14.178058 567.000000,14.097477 
M157.500061,636.317566 
	C299.659912,636.261047 441.819763,636.204407 583.979614,636.148376 
	C591.809265,636.145264 599.667969,636.577454 607.462097,636.051270 
	C620.942383,635.141052 629.787842,625.430176 629.842834,612.019897 
	C629.920105,593.189819 629.868530,574.359253 629.865479,555.528870 
	C629.844971,429.031677 629.814148,302.534485 629.806458,176.037277 
	C629.804260,139.704773 629.439575,103.364731 630.080200,67.042946 
	C630.402771,48.754292 616.124634,38.749008 602.604309,39.761032 
	C601.775757,39.823051 600.938293,39.763435 600.104980,39.763763 
	C480.443176,39.810852 360.781372,39.886539 241.119553,39.893257 
	C184.454636,39.896439 127.789650,39.713127 71.124947,39.795300 
	C66.221626,39.802410 60.926476,40.229733 56.495270,42.088005 
	C45.286713,46.788425 41.676151,56.174610 41.685223,67.951515 
	C41.824173,248.280838 41.824871,428.610291 41.826454,608.939697 
	C41.826614,627.175537 50.907764,636.468384 69.002373,636.443359 
	C98.168236,636.403015 127.334106,636.359680 157.500061,636.317566 
z"/>
<path fill="#010101" opacity="1.000000" stroke="none" 
	d="
M157.000015,636.317566 
	C127.334106,636.359680 98.168236,636.403015 69.002373,636.443359 
	C50.907764,636.468384 41.826614,627.175537 41.826454,608.939697 
	C41.824871,428.610291 41.824173,248.280838 41.685223,67.951515 
	C41.676151,56.174610 45.286713,46.788425 56.495270,42.088005 
	C60.926476,40.229733 66.221626,39.802410 71.124947,39.795300 
	C127.789650,39.713127 184.454636,39.896439 241.119553,39.893257 
	C360.781372,39.886539 480.443176,39.810852 600.104980,39.763763 
	C600.938293,39.763435 601.775757,39.823051 602.604309,39.761032 
	C616.124634,38.749008 630.402771,48.754292 630.080200,67.042946 
	C629.439575,103.364731 629.804260,139.704773 629.806458,176.037277 
	C629.814148,302.534485 629.844971,429.031677 629.865479,555.528870 
	C629.868530,574.359253 629.920105,593.189819 629.842834,612.019897 
	C629.787842,625.430176 620.942383,635.141052 607.462097,636.051270 
	C599.667969,636.577454 591.809265,636.145264 583.979614,636.148376 
	C441.819763,636.204407 299.659912,636.261047 157.000015,636.317566 
M465.650024,160.859085 
	C436.486633,142.446976 404.142975,135.035645 370.171173,133.768005 
	C328.825958,132.225220 289.042206,140.652054 250.018845,153.498657 
	C242.746368,155.892807 239.315887,160.594162 239.320023,168.391434 
	C239.345016,215.544525 239.377594,262.697632 239.407455,309.850708 
	C239.408554,311.584503 239.407578,313.318298 239.407578,314.840790 
	C238.539047,315.081604 238.347275,315.206390 238.222809,315.158020 
	C237.141357,314.737885 236.072479,314.285370 234.998932,313.844788 
	C219.923523,307.658112 204.662003,307.590942 189.707993,313.684021 
	C172.775726,320.583099 161.934006,333.154724 159.174484,351.467590 
	C156.420609,369.742889 163.347809,384.588379 177.847900,395.629700 
	C192.400284,406.710846 208.973755,410.397827 226.954453,406.795715 
	C256.545593,400.867676 274.717224,374.237122 268.481903,345.824127 
	C268.128326,344.213013 268.014954,342.520630 268.011139,340.865570 
	C267.937866,309.209778 267.892456,277.553925 267.854126,245.898071 
	C267.842651,236.424744 269.898346,233.228455 278.838257,229.686752 
	C298.307617,221.973618 318.456512,219.375961 339.166901,222.704361 
	C373.342377,228.196793 392.203705,252.401581 389.523590,286.849762 
	C388.057922,305.688629 381.672211,322.958954 372.191315,339.042053 
	C353.651550,370.492279 328.499390,396.445435 302.321686,421.460236 
	C301.168396,422.562286 298.287506,423.060944 296.810638,422.432404 
	C282.958832,416.537018 268.500916,415.042908 253.698853,416.136047 
	C237.655426,417.320862 222.319565,421.064789 209.522232,431.420990 
	C191.070480,446.353027 182.381149,465.537720 187.417007,489.257263 
	C192.321655,512.358643 207.476837,526.284668 229.927017,532.328613 
	C246.800278,536.871277 264.028137,536.571350 280.970215,533.238831 
	C288.960358,531.667053 297.371460,528.866089 303.987396,524.298218 
	C325.346222,509.551605 333.200012,488.402039 329.555481,462.936371 
	C329.114410,459.854401 329.602203,458.094330 332.117889,456.240417 
	C345.252716,446.560730 358.179657,436.598938 371.314453,426.919189 
	C399.588409,406.082520 429.030396,386.768829 455.105286,363.064972 
	C476.346100,343.755585 495.270966,322.559174 506.103668,295.447845 
	C526.015015,245.615128 514.763000,191.832672 465.650024,160.859085 
M84.618027,61.037926 
	C79.790451,53.987518 73.240837,51.488907 65.732674,53.833351 
	C59.612492,55.744396 54.958302,61.830441 54.947609,67.936417 
	C54.936565,74.244408 58.464539,79.902016 64.106926,82.114937 
	C70.533546,84.635422 76.575317,83.782951 81.688965,79.016312 
	C86.933990,74.127205 87.678581,68.204361 84.618027,61.037926 
M586.033447,72.295570 
	C590.345398,82.874039 602.060974,86.891769 610.297058,80.616531 
	C616.649109,75.776779 618.600525,68.176506 615.179138,61.602642 
	C611.690613,54.899994 603.241882,51.482845 595.987549,53.840580 
	C588.608459,56.238857 584.564636,63.268188 586.033447,72.295570 
M608.444885,593.848389 
	C600.115967,590.573242 592.604980,592.236328 588.271179,598.315186 
	C583.509155,604.994690 585.196594,614.644836 591.998413,619.631042 
	C598.988708,624.755249 608.543945,622.846619 613.871155,615.261902 
	C619.005127,607.952332 617.180359,599.924011 608.444885,593.848389 
M69.658928,592.617554 
	C62.523453,593.027405 57.782967,596.868286 55.589325,603.410950 
	C53.619064,609.287354 55.517315,614.594116 59.870579,618.864136 
	C64.624863,623.527527 71.898476,624.227722 77.866043,620.856079 
	C84.112633,617.326782 87.349808,610.632629 85.961296,604.115906 
	C84.527473,597.386536 79.031204,593.309387 69.658928,592.617554 
z"/>
<path fill="#FCFCFC" opacity="1.000000" stroke="none" 
	d="
M465.950134,161.060104 
	C514.763000,191.832672 526.015015,245.615128 506.103668,295.447845 
	C495.270966,322.559174 476.346100,343.755585 455.105286,363.064972 
	C429.030396,386.768829 399.588409,406.082520 371.314453,426.919189 
	C358.179657,436.598938 345.252716,446.560730 332.117889,456.240417 
	C329.602203,458.094330 329.114410,459.854401 329.555481,462.936371 
	C333.200012,488.402039 325.346222,509.551605 303.987396,524.298218 
	C297.371460,528.866089 288.960358,531.667053 280.970215,533.238831 
	C264.028137,536.571350 246.800278,536.871277 229.927017,532.328613 
	C207.476837,526.284668 192.321655,512.358643 187.417007,489.257263 
	C182.381149,465.537720 191.070480,446.353027 209.522232,431.420990 
	C222.319565,421.064789 237.655426,417.320862 253.698853,416.136047 
	C268.500916,415.042908 282.958832,416.537018 296.810638,422.432404 
	C298.287506,423.060944 301.168396,422.562286 302.321686,421.460236 
	C328.499390,396.445435 353.651550,370.492279 372.191315,339.042053 
	C381.672211,322.958954 388.057922,305.688629 389.523590,286.849762 
	C392.203705,252.401581 373.342377,228.196793 339.166901,222.704361 
	C318.456512,219.375961 298.307617,221.973618 278.838257,229.686752 
	C269.898346,233.228455 267.842651,236.424744 267.854126,245.898071 
	C267.892456,277.553925 267.937866,309.209778 268.011139,340.865570 
	C268.014954,342.520630 268.128326,344.213013 268.481903,345.824127 
	C274.717224,374.237122 256.545593,400.867676 226.954453,406.795715 
	C208.973755,410.397827 192.400284,406.710846 177.847900,395.629700 
	C163.347809,384.588379 156.420609,369.742889 159.174484,351.467590 
	C161.934006,333.154724 172.775726,320.583099 189.707993,313.684021 
	C204.662003,307.590942 219.923523,307.658112 234.998932,313.844788 
	C236.072479,314.285370 237.141357,314.737885 238.222809,315.158020 
	C238.347275,315.206390 238.539047,315.081604 239.407578,314.840790 
	C239.407578,313.318298 239.408554,311.584503 239.407455,309.850708 
	C239.377594,262.697632 239.345016,215.544525 239.320023,168.391434 
	C239.315887,160.594162 242.746368,155.892807 250.018845,153.498657 
	C289.042206,140.652054 328.825958,132.225220 370.171173,133.768005 
	C404.142975,135.035645 436.486633,142.446976 465.950134,161.060104 
z"/>
<path fill="#F6F5F5" opacity="1.000000" stroke="none" 
	d="
M84.777092,61.378967 
	C87.678581,68.204361 86.933990,74.127205 81.688965,79.016312 
	C76.575317,83.782951 70.533546,84.635422 64.106926,82.114937 
	C58.464539,79.902016 54.936565,74.244408 54.947609,67.936417 
	C54.958302,61.830441 59.612492,55.744396 65.732674,53.833351 
	C73.240837,51.488907 79.790451,53.987518 84.777092,61.378967 
z"/>
<path fill="#F6F5F5" opacity="1.000000" stroke="none" 
	d="
M585.917603,71.920944 
	C584.564636,63.268188 588.608459,56.238857 595.987549,53.840580 
	C603.241882,51.482845 611.690613,54.899994 615.179138,61.602642 
	C618.600525,68.176506 616.649109,75.776779 610.297058,80.616531 
	C602.060974,86.891769 590.345398,82.874039 585.917603,71.920944 
z"/>
<path fill="#F6F5F5" opacity="1.000000" stroke="none" 
	d="
M608.768677,594.043091 
	C617.180359,599.924011 619.005127,607.952332 613.871155,615.261902 
	C608.543945,622.846619 598.988708,624.755249 591.998413,619.631042 
	C585.196594,614.644836 583.509155,604.994690 588.271179,598.315186 
	C592.604980,592.236328 600.115967,590.573242 608.768677,594.043091 
z"/>
<path fill="#F6F5F5" opacity="1.000000" stroke="none" 
	d="
M70.057297,592.615601 
	C79.031204,593.309387 84.527473,597.386536 85.961296,604.115906 
	C87.349808,610.632629 84.112633,617.326782 77.866043,620.856079 
	C71.898476,624.227722 64.624863,623.527527 59.870579,618.864136 
	C55.517315,614.594116 53.619064,609.287354 55.589325,603.410950 
	C57.782967,596.868286 62.523453,593.027405 70.057297,592.615601 
z"/>
</svg>